<svg viewBox="0 0 1186 1186" xmlns="http://www.w3.org/2000/svg"><path d="M 461 0 
461 56 
818 56 
818 919 
1186 919 
1186 1186 
609 1186 
609 356 
497 356 
497 1186 
5 1186 
5 500 
0 500 
0 0 
" stroke="black" stroke-width="1" fill="black" /><circle cx="461" cy="0" r="1" stroke="black" stroke-width="1" fill="white" /><circle cx="461" cy="56" r="1" stroke="black" stroke-width="1" fill="white" /><circle cx="818" cy="56" r="1" stroke="black" stroke-width="1" fill="white" /><circle cx="818" cy="919" r="1" stroke="black" stroke-width="1" fill="white" /><circle cx="1186" cy="919" r="1" stroke="black" stroke-width="1" fill="white" /><circle cx="1186" cy="1186" r="1" stroke="black" stroke-width="1" fill="white" /><circle cx="609" cy="1186" r="1" stroke="black" stroke-width="1" fill="white" /><circle cx="609" cy="356" r="1" stroke="black" stroke-width="1" fill="white" /><circle cx="497" cy="356" r="1" stroke="black" stroke-width="1" fill="white" /><circle cx="497" cy="1186" r="1" stroke="black" stroke-width="1" fill="white" /><circle cx="5" cy="1186" r="1" stroke="black" stroke-width="1" fill="white" /><circle cx="5" cy="500" r="1" stroke="black" stroke-width="1" fill="white" /><circle cx="0" cy="500" r="1" stroke="black" stroke-width="1" fill="white" /><circle cx="0" cy="0" r="1" stroke="black" stroke-width="1" fill="white" /></svg>